<mxfile host="app.diagrams.net" agent="Mozilla/5.0 (Windows NT 10.0; Win64; x64) AppleWebKit/537.36 (KHTML, like Gecko) Chrome/136.0.0.0 Safari/537.36" version="27.0.1">
  <diagram name="Page-1" id="leISJ8qKo69MEdxwe8xN">
    <mxGraphModel dx="1426" dy="777" grid="1" gridSize="10" guides="1" tooltips="1" connect="1" arrows="1" fold="1" page="1" pageScale="1" pageWidth="850" pageHeight="1100" math="0" shadow="0">
      <root>
        <mxCell id="0" />
        <mxCell id="1" parent="0" />
        <mxCell id="G4u0P_oPjCdLFYhgPJJt-1" value="&#xa;Customer&#xa;&#xa;" style="shape=umlActor;verticalLabelPosition=bottom;verticalAlign=top;html=1;outlineConnect=0;" vertex="1" parent="1">
          <mxGeometry x="150" y="100" width="30" height="60" as="geometry" />
        </mxCell>
        <mxCell id="G4u0P_oPjCdLFYhgPJJt-2" value="Browse Products" style="ellipse;whiteSpace=wrap;html=1;" vertex="1" parent="1">
          <mxGeometry x="390" y="80" width="120" height="80" as="geometry" />
        </mxCell>
        <mxCell id="G4u0P_oPjCdLFYhgPJJt-3" value="Make Purchase" style="ellipse;whiteSpace=wrap;html=1;" vertex="1" parent="1">
          <mxGeometry x="400" y="200" width="120" height="80" as="geometry" />
        </mxCell>
        <mxCell id="G4u0P_oPjCdLFYhgPJJt-4" value="View Promotions" style="ellipse;whiteSpace=wrap;html=1;" vertex="1" parent="1">
          <mxGeometry x="390" y="470" width="120" height="80" as="geometry" />
        </mxCell>
        <mxCell id="G4u0P_oPjCdLFYhgPJJt-5" value="Make Payment" style="ellipse;whiteSpace=wrap;html=1;" vertex="1" parent="1">
          <mxGeometry x="560" y="210" width="120" height="80" as="geometry" />
        </mxCell>
        <mxCell id="G4u0P_oPjCdLFYhgPJJt-6" value="Online Payment" style="ellipse;whiteSpace=wrap;html=1;" vertex="1" parent="1">
          <mxGeometry x="500" y="340" width="120" height="80" as="geometry" />
        </mxCell>
        <mxCell id="G4u0P_oPjCdLFYhgPJJt-7" value="In-Store Payment" style="ellipse;whiteSpace=wrap;html=1;" vertex="1" parent="1">
          <mxGeometry x="660" y="330" width="120" height="80" as="geometry" />
        </mxCell>
        <mxCell id="G4u0P_oPjCdLFYhgPJJt-8" value="&amp;lt;&amp;lt;include&amp;gt;&amp;gt;" style="endArrow=open;endSize=12;dashed=1;html=1;rounded=0;entryX=0.583;entryY=0.05;entryDx=0;entryDy=0;entryPerimeter=0;" edge="1" parent="1" source="G4u0P_oPjCdLFYhgPJJt-5" target="G4u0P_oPjCdLFYhgPJJt-6">
          <mxGeometry width="160" relative="1" as="geometry">
            <mxPoint x="360" y="410" as="sourcePoint" />
            <mxPoint x="520" y="410" as="targetPoint" />
          </mxGeometry>
        </mxCell>
        <mxCell id="G4u0P_oPjCdLFYhgPJJt-9" value="&amp;lt;&amp;lt;include&amp;gt;&amp;gt;" style="endArrow=open;endSize=12;dashed=1;html=1;rounded=0;exitX=0.6;exitY=0.975;exitDx=0;exitDy=0;exitPerimeter=0;" edge="1" parent="1" source="G4u0P_oPjCdLFYhgPJJt-5" target="G4u0P_oPjCdLFYhgPJJt-7">
          <mxGeometry width="160" relative="1" as="geometry">
            <mxPoint x="610" y="298" as="sourcePoint" />
            <mxPoint x="580" y="354" as="targetPoint" />
          </mxGeometry>
        </mxCell>
        <mxCell id="G4u0P_oPjCdLFYhgPJJt-10" value="&amp;lt;&amp;lt;include&amp;gt;&amp;gt;" style="endArrow=open;endSize=12;dashed=1;html=1;rounded=0;exitX=0.983;exitY=0.425;exitDx=0;exitDy=0;exitPerimeter=0;" edge="1" parent="1" source="G4u0P_oPjCdLFYhgPJJt-3" target="G4u0P_oPjCdLFYhgPJJt-5">
          <mxGeometry width="160" relative="1" as="geometry">
            <mxPoint x="620" y="308" as="sourcePoint" />
            <mxPoint x="590" y="364" as="targetPoint" />
          </mxGeometry>
        </mxCell>
        <mxCell id="G4u0P_oPjCdLFYhgPJJt-11" value="&#xa;Apply Promotion Code&#xa;&#xa;" style="ellipse;whiteSpace=wrap;html=1;" vertex="1" parent="1">
          <mxGeometry x="610" y="60" width="120" height="80" as="geometry" />
        </mxCell>
        <mxCell id="G4u0P_oPjCdLFYhgPJJt-12" value="&amp;lt;&amp;lt;extends&amp;gt;&amp;gt;" style="endArrow=open;endSize=12;dashed=1;html=1;rounded=0;exitX=0.608;exitY=0.025;exitDx=0;exitDy=0;exitPerimeter=0;entryX=0.333;entryY=0.963;entryDx=0;entryDy=0;entryPerimeter=0;" edge="1" parent="1" source="G4u0P_oPjCdLFYhgPJJt-5" target="G4u0P_oPjCdLFYhgPJJt-11">
          <mxGeometry width="160" relative="1" as="geometry">
            <mxPoint x="642" y="298" as="sourcePoint" />
            <mxPoint x="695" y="347" as="targetPoint" />
          </mxGeometry>
        </mxCell>
      </root>
    </mxGraphModel>
  </diagram>
</mxfile>
